<svg width="42" height="42" viewBox="0 0 42 42" fill="none" xmlns="http://www.w3.org/2000/svg">
<path d="M16.38 13.3348C17.556 13.3348 18.501 12.3898 18.501 11.2138C18.501 10.0378 17.556 9.09277 16.38 9.09277C15.204 9.09277 14.259 10.0378 14.259 11.2138C14.259 12.3898 15.204 13.3348 16.38 13.3348Z" fill="black"/>
<path fill-rule="evenodd" clip-rule="evenodd" d="M20.643 17.9548C20.643 15.6868 18.732 14.0488 16.38 14.0488C14.028 14.0488 12.117 15.6868 12.117 17.9548V19.0258C12.117 19.2148 12.201 19.4038 12.327 19.5298C12.453 19.6558 12.642 19.7398 12.831 19.7398H19.929C20.118 19.7398 20.307 19.6558 20.433 19.5298C20.559 19.4038 20.643 19.2148 20.643 19.0258V17.9548V17.9548ZM12.075 24.1498C12.075 23.7321 12.2409 23.3315 12.5363 23.0361C12.8316 22.7408 13.2322 22.5748 13.65 22.5748H28.35C28.7677 22.5748 29.1683 22.7408 29.4636 23.0361C29.759 23.3315 29.925 23.7321 29.925 24.1498C29.925 24.5675 29.759 24.9682 29.4636 25.2635C29.1683 25.5589 28.7677 25.7248 28.35 25.7248H13.65C13.2322 25.7248 12.8316 25.5589 12.5363 25.2635C12.2409 24.9682 12.075 24.5675 12.075 24.1498ZM12.075 30.4498C12.075 30.0321 12.2409 29.6315 12.5363 29.3361C12.8316 29.0408 13.2322 28.8748 13.65 28.8748H28.35C28.7677 28.8748 29.1683 29.0408 29.4636 29.3361C29.759 29.6315 29.925 30.0321 29.925 30.4498C29.925 30.8675 29.759 31.2682 29.4636 31.5635C29.1683 31.8589 28.7677 32.0248 28.35 32.0248H13.65C13.2322 32.0248 12.8316 31.8589 12.5363 31.5635C12.2409 31.2682 12.075 30.8675 12.075 30.4498Z" fill="black"/>
<path fill-rule="evenodd" clip-rule="evenodd" d="M5.25 5.2498C5.25 2.9356 7.1358 1.0498 9.45 1.0498H23.499C24.6792 1.0498 25.7922 1.5496 26.5755 2.3749L26.5881 2.3896L35.6433 12.2638C36.3972 13.0681 36.75 14.1202 36.75 15.1198V36.7498C36.75 39.064 34.8642 40.9498 32.55 40.9498H9.45C7.1358 40.9498 5.25 39.064 5.25 36.7498V5.2498V5.2498ZM23.4969 5.2498H9.45V36.7498H32.55V15.103L23.5284 5.2645L23.5221 5.2624C23.5144 5.25685 23.5059 5.25259 23.4969 5.2498V5.2498Z" fill="black"/>
<path fill-rule="evenodd" clip-rule="evenodd" d="M23.4989 1.0498C24.0559 1.0498 24.59 1.27105 24.9839 1.66488C25.3777 2.05871 25.5989 2.59285 25.5989 3.1498V13.0198H34.6499C34.9257 13.0198 35.1988 13.0741 35.4536 13.1797C35.7083 13.2852 35.9398 13.4399 36.1349 13.6349C36.3299 13.8299 36.4845 14.0614 36.5901 14.3162C36.6956 14.571 36.7499 14.844 36.7499 15.1198C36.7499 15.3956 36.6956 15.6687 36.5901 15.9234C36.4845 16.1782 36.3299 16.4097 36.1349 16.6047C35.9398 16.7997 35.7083 16.9544 35.4536 17.06C35.1988 17.1655 34.9257 17.2198 34.6499 17.2198H23.4989C22.942 17.2198 22.4078 16.9986 22.014 16.6047C21.6202 16.2109 21.3989 15.6768 21.3989 15.1198V3.1498C21.3989 2.59285 21.6202 2.05871 22.014 1.66488C22.4078 1.27105 22.942 1.0498 23.4989 1.0498Z" fill="black"/>
</svg>
